<mxfile host="app.diagrams.net" modified="2023-12-27T10:43:03.387Z" agent="Mozilla/5.0 (Windows NT 10.0; Win64; x64) AppleWebKit/537.36 (KHTML, like Gecko) Chrome/120.0.0.0 Safari/537.36" version="22.1.12" etag="cKX_OhtP3g2lOmHaaG70" type="github">
  <diagram name="Halaman-1" id="x-KHx4K9hXtOyAcJk_dW">
    <mxGraphModel>
      <root>
        <mxCell id="0" />
        <mxCell id="1" parent="0" />
      </root>
    </mxGraphModel>
  </diagram>
</mxfile>
